<?xml version="1.0" standalone="no"?>
<!DOCTYPE svg PUBLIC "-//W3C//DTD SVG 20010904//EN"
 "http://www.w3.org/TR/2001/REC-SVG-20010904/DTD/svg10.dtd">
<svg version="1.0" xmlns="http://www.w3.org/2000/svg"
 width="602.000000pt" height="602.000000pt" viewBox="0 0 602.000000 602.000000"
 preserveAspectRatio="xMidYMid meet">
<metadata>
Created by potrace 1.14, written by Peter Selinger 2001-2017
</metadata>
<g transform="translate(0.000000,602.000000) scale(0.100000,-0.100000)"
fill="#000000" stroke="none">
<path d="M702 4078 c385 -579 703 -1059 705 -1068 2 -8 -313 -491 -701 -1073
l-705 -1057 532 0 532 0 420 630 c231 346 427 641 435 654 8 14 138 208 287
432 l273 408 -18 27 c-9 15 -327 493 -707 1063 l-690 1035 -533 1 -532 0 702
-1052z"/>
<path d="M1426 5118 c4 -7 322 -485 707 -1061 384 -577 696 -1054 694 -1060
-3 -7 -308 -467 -678 -1022 -371 -556 -686 -1030 -702 -1053 l-27 -42 532 1
533 0 439 660 c357 537 441 658 451 647 7 -7 207 -304 444 -660 l432 -648 530
0 531 0 -19 29 c-10 16 -646 972 -1413 2124 l-1395 2095 -533 1 c-424 1 -532
-2 -526 -11z"/>
<path d="M3897 3536 l237 -354 943 0 943 0 0 354 0 354 -1180 0 -1180 0 237
-354z"/>
<path d="M4378 2816 c3 -6 109 -165 235 -353 204 -307 231 -343 255 -344 36 0
1078 0 1120 0 l32 1 -2 353 -3 352 -822 1 c-572 0 -820 -3 -815 -10z"/>
</g>
</svg>
